<?xml version="1.0" standalone="no"?><!DOCTYPE svg PUBLIC "-//W3C//DTD SVG 1.1//EN" "http://www.w3.org/Graphics/SVG/1.1/DTD/svg11.dtd"><svg class="icon" width="32px" height="32.00px" viewBox="0 0 1024 1024" version="1.1" xmlns="http://www.w3.org/2000/svg"><path d="M777.216 206.336c-16.384-15.872-34.816-23.552-54.272-23.552-30.208 0-52.224 19.456-58.368 25.6-8.704 8.192-250.368 249.344-250.368 249.344-2.048 2.048-3.072 4.096-4.096 7.168-6.656 24.064-39.424 131.584-39.936 132.608-1.536 5.632 0 11.264 4.096 15.36 3.072 3.072 6.656 4.608 10.752 4.608 1.536 0 3.072 0 4.608-0.512 1.024-0.512 112.128-36.352 130.048-41.472 2.56-0.512 4.608-2.048 6.144-3.584 11.264-11.264 233.984-229.888 251.904-248.32 18.432-18.944 27.648-38.912 27.648-59.392 0-20.992-9.728-39.936-28.16-57.856z m-25.088 91.136c-10.24 10.24-89.6 89.088-236.032 232.96l-11.264 11.264c-16.896 5.12-56.832 17.92-87.552 28.16 9.728-32.256 21.504-71.168 26.624-89.6 31.232-31.232 238.592-237.568 246.272-245.76 1.536-1.536 15.36-14.848 32.768-14.848 9.728 0 19.456 4.608 28.672 13.824 11.264 10.752 17.408 21.504 17.408 31.232 0.512 9.216-5.12 20.48-16.896 32.768z" fill="#0C4887" /><path d="M738.816 481.792c-11.264 0-20.48 9.216-20.48 19.968v218.624c0 22.016-12.8 44.544-34.816 44.544h-419.84c-22.528 0-47.104-22.528-47.104-44.544V296.448c0-21.504 24.576-35.328 47.104-35.328H491.52c11.264 0 20.48-9.216 20.48-19.968 0-11.264-9.216-19.968-20.48-19.968H263.68c-22.016 0-43.008 7.168-59.392 19.456-18.432 14.336-29.184 34.304-29.184 55.808v423.936c0 20.992 10.24 42.496 27.136 59.392 16.896 16.384 39.936 26.112 61.44 26.112h419.328c22.528 0 42.496-9.728 56.832-27.648 12.8-15.872 19.456-35.84 19.456-57.344V501.76c0-10.752-9.216-19.968-20.48-19.968z" fill="#0C4887" /></svg>