<?xml version="1.0" standalone="no"?><!DOCTYPE svg PUBLIC "-//W3C//DTD SVG 1.1//EN" "http://www.w3.org/Graphics/SVG/1.1/DTD/svg11.dtd"><svg class="icon" width="32px" height="32.00px" viewBox="0 0 1024 1024" version="1.1" xmlns="http://www.w3.org/2000/svg"><path d="M30.117647 488.809412c0 266.601412 215.702588 482.605176 481.882353 482.605176 266.179765 0 481.882353-216.003765 481.882353-482.605176C993.882353 222.268235 778.179765 6.204235 512 6.204235c-266.179765 0-481.882353 216.064-481.882353 482.605177z m643.011765 382.132706A409.6 409.6 0 0 1 512 903.589647a411.166118 411.166118 0 0 1-161.129412-32.527059 414.539294 414.539294 0 0 1-131.674353-88.907294 412.611765 412.611765 0 0 1-88.726588-131.915294 412.129882 412.129882 0 0 1-32.587294-161.430588 412.912941 412.912941 0 0 1 121.253647-293.225412A411.949176 411.949176 0 0 1 512 74.089412c55.898353 0 110.110118 10.902588 161.129412 32.527059a414.539294 414.539294 0 0 1 131.674353 88.847058 412.611765 412.611765 0 0 1 88.726588 131.915295c21.684706 51.2 32.587294 105.411765 32.587294 161.430588a412.912941 412.912941 0 0 1-121.313882 293.285647 411.949176 411.949176 0 0 1-131.674353 88.847059zM512.662588 440.922353L390.565647 318.464a33.972706 33.972706 0 0 0-47.887059 48.007529l122.096941 122.277647-122.819764 123.000471a33.972706 33.972706 0 0 0 47.947294 48.007529L512.602353 536.816941l121.434353 121.675294a33.972706 33.972706 0 0 0 47.887059-48.007529l-121.374118-121.675294 122.096941-122.277647a33.972706 33.972706 0 0 0-47.947294-48.00753l-122.096941 122.277647z" fill="#FF001F" /></svg>