<?xml version="1.0" standalone="no"?><!DOCTYPE svg PUBLIC "-//W3C//DTD SVG 1.1//EN" "http://www.w3.org/Graphics/SVG/1.1/DTD/svg11.dtd"><svg class="icon" width="32px" height="32.00px" viewBox="0 0 1024 1024" version="1.1" xmlns="http://www.w3.org/2000/svg"><path d="M512 0c282.7776 0 512 229.2224 512 512s-229.2224 512-512 512S0 794.7776 0 512 229.2224 0 512 0z m0 640c-14.0288-0.1536-25.4976 13.2096-25.6 29.8496v68.4032c0.256 16.7424 11.9808 30.0544 26.112 29.696 13.7216-0.256 24.832-13.4144 25.088-29.696v-68.4032c-0.1024-16.5888-11.5712-29.952-25.6-29.8496z m-126.5664-15.7184l-45.824 45.824a28.3136 28.3136 0 0 0-1.6384 34.7136l3.072 3.6864c10.5472 10.4448 27.136 11.1104 38.4 1.536l45.8752-45.8752a28.2112 28.2112 0 0 0 9.7792-23.6544l-0.6656-4.4544a28.3648 28.3648 0 0 0-16.64-19.456l-4.2496-1.4336a28.3136 28.3136 0 0 0-28.1088 9.1136z m215.4496-4.2496l-3.8912 3.3792a29.5936 29.5936 0 0 0-3.072 37.0176l47.3088 47.6672c10.24 10.2912 25.9584 11.4688 37.376 3.4304l4.096-3.4304a29.5936 29.5936 0 0 0 3.6864-36.9664l-3.2256-4.096a22.9376 22.9376 0 0 0-0.4608-0.4096l-49.0496-47.616a29.0304 29.0304 0 0 0-32.768 1.024zM739.328 512h-69.4272c-16.1792-0.3072-29.5424 10.9568-29.9008 25.088-0.3072 14.1312 12.4928 25.8048 28.672 26.112h69.4272c16.1792 0.3072 29.5424-10.9568 29.9008-25.088 0.3072-14.1312-12.4928-25.8048-28.672-26.112z m-385.1264 0H285.952c-16.2304-0.3072-29.5936 10.9568-29.952 25.088-0.3072 14.1312 12.544 25.8048 28.672 26.112h69.5296c14.6944 0.1024 26.9824-9.216 29.3888-21.4016L384 537.6c-0.1536-14.2336-13.4656-25.7024-29.7984-25.6z m287.3856-170.7008l-45.824 46.5408a28.5184 28.5184 0 0 0-1.6384 35.2256l3.1744 3.7376a29.184 29.184 0 0 0 39.424 1.536h-1.536v-0.0512l47.616-46.4896a28.5184 28.5184 0 0 0 3.584-36.096l-3.1744-3.9936-0.2048-0.2048-0.256-0.2048a29.184 29.184 0 0 0-41.1648 0zM344.7808 337.92l-3.6864 3.072a28.2624 28.2624 0 0 0-1.536 38.4l45.8752 45.8752a28.3648 28.3648 0 0 0 23.6544 9.7792l4.4544-0.6656a28.16 28.16 0 0 0 19.456-16.5888l1.4336-4.3008a28.3648 28.3648 0 0 0-5.9392-24.9344l-48.9984-48.9984a28.2624 28.2624 0 0 0-34.7136-1.6384zM512 256c-14.0288-0.1536-25.4976 13.2096-25.6 29.8496V354.304c0.256 16.7424 11.9808 30.0544 26.112 29.696 13.7216-0.256 24.832-13.4144 25.088-29.696V285.8496c-0.1024-16.64-11.5712-30.0032-25.6-29.8496z" fill="#598AFF" /></svg>