<?xml version="1.0" standalone="no"?><!DOCTYPE svg PUBLIC "-//W3C//DTD SVG 1.1//EN" "http://www.w3.org/Graphics/SVG/1.1/DTD/svg11.dtd"><svg class="icon" width="32px" height="32.00px" viewBox="0 0 1024 1024" version="1.1" xmlns="http://www.w3.org/2000/svg"><path d="M0 511.999573c0-159.061068 0-238.548936 25.983957-301.268831a341.332764 341.332764 0 0 1 184.746358-184.746359C273.450211 0.000427 352.938078 0.000427 511.999147 0.000427c159.018402 0 238.548936 0 301.268831 25.983956a341.332764 341.332764 0 0 1 184.746359 184.746359C1023.998293 273.450638 1023.998293 352.938505 1023.998293 511.999573c0 159.018402 0 238.548936-25.983956 301.268832a341.332764 341.332764 0 0 1-184.746359 184.746358C750.548082 1023.99872 671.017548 1023.99872 511.999147 1023.99872c-159.061068 0-238.548936 0-301.268832-25.983957a341.332764 341.332764 0 0 1-184.746358-184.746358C0 750.548509 0 671.017975 0 511.999573z" fill="#27AD9A" /><path d="M0 511.999573C0 229.248045 229.247618 0.000427 511.999147 0.000427s511.999147 229.247618 511.999146 511.999146-229.247618 511.999147-511.999146 511.999147S0 794.751102 0 511.999573z" fill="#FFFFFF" /><path d="M511.70048 0.000427a511.999147 511.999147 0 1 0 473.300545 315.732807A511.657814 511.657814 0 0 0 511.743147 0.000427zM184.405026 511.700907a36.991938 36.991938 0 0 1 38.10127-36.693272h92.885178a36.693272 36.693272 0 1 1 0 73.386544H222.506296a36.693272 36.693272 0 0 1-38.10127-36.693272zM385.706024 670.292643l-65.91989 65.91989a36.991938 36.991938 0 0 1-62.847896-25.898624 38.10127 38.10127 0 0 1 10.837316-26.111956l65.91989-65.91989a36.778605 36.778605 0 1 1 52.01058 52.01058z m29.183951-256.127573a36.693272 36.693272 0 0 1-52.01058 0L297.300838 348.458513a36.991938 36.991938 0 0 1 26.154623-62.847896 36.138606 36.138606 0 0 1 25.855957 10.837316l65.621224 65.109224a36.991938 36.991938 0 0 1 0 52.565246z m135.466441 373.759377a37.247938 37.247938 0 0 1-36.991938 36.991938 36.991938 36.991938 0 0 1-36.693272-36.991938v-92.586513a36.991938 36.991938 0 0 1 36.693272-36.991938 37.247938 37.247938 0 0 1 36.991938 36.991938v92.586513z m0-459.433901a37.247938 37.247938 0 0 1-36.991938 36.991938 36.991938 36.991938 0 0 1-36.693272-36.991938V235.562701a36.991938 36.991938 0 0 1 36.693272-36.991939 37.546604 37.546604 0 0 1 36.991938 36.991939v92.885178z m63.957227 15.871973l65.621224-66.218556a36.693272 36.693272 0 0 1 52.01058 51.754581l-64.511893 66.730555a37.546604 37.546604 0 0 1-52.309246 0 36.991938 36.991938 0 0 1-10.538649-26.154623 36.394606 36.394606 0 0 1 9.727984-26.111957z m122.06913 397.951337a37.546604 37.546604 0 0 1-52.26658 0l-65.365224-65.91989a36.266606 36.266606 0 0 1 0-51.711914 36.693272 36.693272 0 0 1 39.893267-8.063986 35.882607 35.882607 0 0 1 11.818647 8.063986l65.91989 65.621224a36.991938 36.991938 0 0 1 0 52.053247z m66.474556-194.687675h-92.885179a36.693272 36.693272 0 1 1 0-73.386545h92.885179a36.693272 36.693272 0 0 1 0 73.386545z" fill="#27AD9A" /></svg>